# Rhino

mtllib cone_proper 1.mtl
usemtl diffuse_Black
v 0 0 0
v 7.4729984124183488 0 21.000000000000036
v 7.0320553927158329 -2.0213940187625017 21.000000000000025
v 5.8453612076912833 -3.7213819020984018 21.000000000000014
v 4.1739594095879653 -4.9545024173775314 21.000000000000011
v 2.2330882366907048 -5.7001209555690373 21.000000000000004
v 0.17081316978924121 -5.9714730676673788 21
v -1.9001615400100746 -5.776719070367788 21
v -3.8697053140242446 -5.1098500684097328 21
v -5.5979569902582682 -3.9569372926756521 20.999999999999996
v -6.8819185569923889 -2.3282171816871378 20.999999999999996
v -7.4607849004780462 -0.341354216447812 20.999999999999996
v -7.1112184454350711 1.6921633016187978 20.999999999999996
v -5.9041983028995588 3.3747749774511231 21
v -4.19563211851613 4.5556556966986594 21
v -2.2363255690295887 5.2529186586922556 21
v -0.1708146084684472 5.5037647934152041 21
v 1.9021492018948436 5.3238794982394602 21
v 3.8869120984885654 4.7019313328650245 21.000000000000004
v 5.650112921126933 3.6031020180252722 21.000000000000011
v 6.9625704373617765 1.9996898566564858 21.000000000000025
v -7.1112184454350711 1.6921633016187978 20.999999999999996
v -5.9041983028995588 3.3747749774511231 21
v -4.19563211851613 4.5556556966986594 21
v -2.2363255690295887 5.2529186586922556 21
v -0.1708146084684472 5.5037647934152041 21
v 1.9021492018948436 5.3238794982394602 21
v 3.8869120984885654 4.7019313328650245 21.000000000000004
v 5.650112921126933 3.6031020180252722 21.000000000000011
v 6.9625704373617765 1.9996898566564858 21.000000000000025
v 7.4729984124183488 0 21.000000000000036
v 7.0320553927158329 -2.0213940187625017 21.000000000000025
v 5.8453612076912833 -3.7213819020984018 21.000000000000014
v 4.1739594095879653 -4.9545024173775314 21.000000000000011
v 2.2330882366907048 -5.7001209555690373 21.000000000000004
v 0.17081316978924121 -5.9714730676673788 21
v -1.9001615400100746 -5.776719070367788 21
v -3.8697053140242446 -5.1098500684097328 21
v -5.5979569902582682 -3.9569372926756521 20.999999999999996
v -6.8819185569923889 -2.3282171816871378 20.999999999999996
v -7.4607849004780462 -0.341354216447812 20.999999999999996
vn 4.8446167056681588E-05 -0.0055291727185249329 0.9999847412109375
vn -0.94199436902999878 -0.01665339432656765 0.33521533012390137
vn -0.86588060855865479 0.37906494736671448 0.32643619179725647
vn -0.68129152059555054 0.66435474157333374 0.30736726522445679
vn -0.45966202020645142 0.83960133790969849 0.28944844007492065
vn -0.23642417788505554 0.93107163906097412 0.27786555886268616
vn -0.017814468592405319 0.96167755126953125 0.27360355854034424
vn 0.20033030211925507 0.93985378742218018 0.2766633927822113
vn 0.42278626561164856 0.85956233739852905 0.28706157207489014
vn 0.64604717493057251 0.70009082555770874 0.30413141846656799
vn 0.84094023704528809 0.43366041779518127 0.32366368174552917
vn 0.94068008661270142 0.053386952728033066 0.33506834506988525
vn 0.87217074632644653 -0.36580190062522888 0.32481873035430908
vn 0.66865324974060059 -0.68146342039108276 0.29750698804855347
vn 0.43819057941436768 -0.85632258653640747 0.27331417798995972
vn 0.2213732898235321 -0.94023168087005615 0.25876304507255554
vn 0.016575941815972328 -0.96716374158859253 0.25361302495002747
vn -0.1872415691614151 -0.9480176568031311 0.25729966163635254
vn -0.40151318907737732 -0.87507361173629761 0.27024677395820618
vn -0.63074654340744019 -0.71855086088180542 0.29299050569534302
vn -0.84491229057312012 -0.42796805500984192 0.32088401913642883
vn -0.87217074632644653 0.36580190062522888 -0.32481873035430908
vn -0.66865324974060059 0.68146342039108276 -0.29750698804855347
vn -0.43819057941436768 0.85632258653640747 -0.27331417798995972
vn -0.2213732898235321 0.94023168087005615 -0.25876304507255554
vn -0.016575941815972328 0.96716374158859253 -0.25361302495002747
vn 0.1872415691614151 0.9480176568031311 -0.25729966163635254
vn 0.40151318907737732 0.87507361173629761 -0.27024677395820618
vn 0.63074654340744019 0.71855086088180542 -0.29299050569534302
vn 0.84491229057312012 0.42796805500984192 -0.32088401913642883
vn 0.94199436902999878 0.01665339432656765 -0.33521533012390137
vn 0.86588060855865479 -0.37906494736671448 -0.32643619179725647
vn 0.68129152059555054 -0.66435474157333374 -0.30736726522445679
vn 0.45966202020645142 -0.83960133790969849 -0.28944844007492065
vn 0.23642417788505554 -0.93107163906097412 -0.27786555886268616
vn 0.017814468592405319 -0.96167755126953125 -0.27360355854034424
vn -0.20033030211925507 -0.93985378742218018 -0.2766633927822113
vn -0.42278626561164856 -0.85956233739852905 -0.28706157207489014
vn -0.64604717493057251 -0.70009082555770874 -0.30413141846656799
vn -0.84094023704528809 -0.43366041779518127 -0.32366368174552917
vn -0.94068008661270142 -0.053386952728033066 -0.33506834506988525
f 2//2 1//1 3//3
f 3//3 1//1 4//4
f 4//4 1//1 5//5
f 5//5 1//1 6//6
f 6//6 1//1 7//7
f 7//7 1//1 8//8
f 8//8 1//1 9//9
f 9//9 1//1 10//10
f 10//10 1//1 11//11
f 11//11 1//1 12//12
f 12//12 1//1 13//13
f 13//13 1//1 14//14
f 14//14 1//1 15//15
f 15//15 1//1 16//16
f 16//16 1//1 17//17
f 17//17 1//1 18//18
f 18//18 1//1 19//19
f 19//19 1//1 20//20
f 20//20 1//1 21//21
f 21//21 1//1 2//2
f 38//38 25//25 37//37
f 40//40 23//23 39//39
f 24//24 38//38 39//39
f 26//26 36//36 37//37
f 35//35 27//27 34//34
f 32//32 33//33 29//29
f 33//33 34//34 28//28
f 36//36 27//27 35//35
f 41//41 22//22 40//40
f 39//39 23//23 24//24
f 25//25 26//26 37//37
f 25//25 38//38 24//24
f 26//26 27//27 36//36
f 30//30 31//31 32//32
f 32//32 29//29 30//30
f 29//29 33//33 28//28
f 34//34 27//27 28//28
f 22//22 23//23 40//40
