# Blender v2.91.2 OBJ File: ''
# www.blender.org
mtllib octagon.mtl
v -3.002609 -0.000000 1.243721
v -3.002609 0.000000 -1.243721
v -3.002609 1.200000 -1.243721
v -3.002609 1.200000 1.243721
v -3.002609 0.000000 -1.243721
v -1.243721 0.000000 -3.002609
v -1.243721 1.200001 -3.002608
v -3.002609 1.200000 -1.243721
v -1.243721 0.000000 -3.002609
v 1.243721 0.000000 -3.002609
v 1.243721 1.200001 -3.002608
v -1.243721 1.200001 -3.002608
v 1.243721 0.000000 -3.002609
v 3.002609 0.000000 -1.243721
v 3.002609 1.200000 -1.243721
v 1.243721 1.200001 -3.002608
v 3.002609 0.000000 -1.243721
v 3.002609 -0.000000 1.243721
v 3.002609 1.200000 1.243721
v 3.002609 1.200000 -1.243721
v 3.002609 -0.000000 1.243721
v 1.243721 -0.000000 3.002609
v 1.243721 1.200000 3.002609
v 3.002609 1.200000 1.243721
v 1.243721 -0.000000 3.002609
v -1.243721 -0.000000 3.002609
v -1.243721 1.200000 3.002609
v 1.243721 1.200000 3.002609
v -1.243721 -0.000000 3.002609
v -3.002609 -0.000000 1.243721
v -3.002609 1.200000 1.243721
v -1.243721 1.200000 3.002609
vt 0.125000 1.000000
vt 0.000000 1.000000
vt 0.000000 0.000000
vt 0.125000 0.000000
vt 1.000000 1.000000
vt 0.875000 1.000000
vt 0.875000 0.000000
vt 1.000000 0.000000
vt 0.875000 1.000000
vt 0.750000 1.000000
vt 0.750000 0.000000
vt 0.875000 0.000000
vt 0.750000 1.000000
vt 0.625000 1.000000
vt 0.625000 0.000000
vt 0.750000 0.000000
vt 0.625000 1.000000
vt 0.500000 1.000000
vt 0.500000 0.000000
vt 0.625000 0.000000
vt 0.500000 1.000000
vt 0.375000 1.000000
vt 0.375000 0.000000
vt 0.500000 0.000000
vt 0.375000 1.000000
vt 0.250000 1.000000
vt 0.250000 0.000000
vt 0.375000 0.000000
vt 0.250000 1.000000
vt 0.125000 1.000000
vt 0.125000 0.000000
vt 0.250000 0.000000
vn 1.0000 0.0000 0.0000
vn 0.7071 -0.0000 0.7071
vn 0.0000 -0.0000 1.0000
vn -0.7071 -0.0000 0.7071
vn -1.0000 0.0000 0.0000
vn -0.7071 0.0000 -0.7071
vn 0.0000 0.0000 -1.0000
vn 0.7071 0.0000 -0.7071
usemtl diffuse_Black
s 1
f 1/1/1 2/2/1 3/3/1 4/4/1
f 5/5/2 6/6/2 7/7/2 8/8/2
f 9/9/3 10/10/3 11/11/3 12/12/3
f 13/13/4 14/14/4 15/15/4 16/16/4
f 17/17/5 18/18/5 19/19/5 20/20/5
f 21/21/6 22/22/6 23/23/6 24/24/6
f 25/25/7 26/26/7 27/27/7 28/28/7
f 29/29/8 30/30/8 31/31/8 32/32/8
